PathFileType	4	(X/Y/Z)	64_2_86_p0_0-507.trc
DataRate	CameraRate	NumFrames	NumMarkers	Units	OrigDataRate	OrigDataStartFrame	OrigNumFrames
51.0	51.0	4	27	m	51.0	0	508
Frame#	Time	RHip			RKnee			RAnkle			RBigToe			RSmallToe			RHeel			LHip			LKnee			LAnkle			LBigToe			LSmallToe			LHeel			Neck			Head			Nose			RShoulder			RElbow			RWrist			RThumb			RIndex			RPinky			LShoulder			LElbow			LWrist			LThumb			LIndex			LPinky			
		X1	Y1	Z1	X2	Y2	Z2	X3	Y3	Z3	X4	Y4	Z4	X5	Y5	Z5	X6	Y6	Z6	X7	Y7	Z7	X8	Y8	Z8	X9	Y9	Z9	X10	Y10	Z10	X11	Y11	Z11	X12	Y12	Z12	X13	Y13	Z13	X14	Y14	Z14	X15	Y15	Z15	X16	Y16	Z16	X17	Y17	Z17	X18	Y18	Z18	X19	Y19	Z19	X20	Y20	Z20	X21	Y21	Z21	X22	Y22	Z22	X23	Y23	Z23	X24	Y24	Z24	X25	Y25	Z25	X26	Y26	Z26	X27	Y27	Z27	
0	0.0	0.3199433450695185	0.7455863082790763	0.5721478936934783	0.3010898552045636	0.9877250598163994	0.9388292777720612	0.256203981946318	1.2565816609189804	1.3151699944192736	0.2716972165458097	1.1087334802555406	1.4182843968927656	0.34029374198585316	1.1013877991906331	1.3959689554760477	0.20274245187724999	1.3770363565752375	1.3374354252497573	0.1281680054316916	0.7037110222573657	0.6024827144819911	0.10757198942412774	0.9208050031028463	0.9628710243772424	0.07683168979422796	1.1983572019492577	1.3234782480882916	0.1265216192427883	1.0329151855567287	1.4108813917970975	0.06016152416048724	1.0824775716222144	1.406595440818169	0.06813318985910072	1.3157240068226208	1.349153468491388	0.2162209287724295	0.45557832341761595	0.1715793929379037	0.24533124667041137	0.2589052556090295	0.00840132443727819	0.26832820563696846	0.267553689639319	0.13942109184791387	0.38384063230419746	0.49671796985810174	0.2362797662807262	0.418691233848473	0.7206749750696767	0.4154719029671254	0.42821526258776754	0.8501491234549412	0.6504974090513395	0.4395119135864607	0.7766747114604446	0.77351092555127	0.4641422875314089	0.798073924452278	0.7751201789644074	0.4449338010736413	0.9027216320364568	0.7518296790300841	0.08332058255898267	0.46298711548331023	0.2607579951533934	-0.003173740280298043	0.657700015020858	0.4616953295209573	-0.032195139834987424	0.7920831473197455	0.6439694772526974	-0.013735168009226325	0.892971077592325	0.7289502386607536	-0.046751034966708634	0.8582945959259566	0.7488711541167538	-0.07944236520070942	0.8752672385386812	0.7340594792673978
1	0.0196078431372549	0.32805811636735194	0.7361476088934883	0.578036603096309	0.3017390460505031	0.9549525758547243	0.939599672460366	0.2624154616820591	1.238752417439844	1.3108146183635578	0.2728966785355744	1.1046379361782124	1.4118634931215805	0.34101367146007927	1.0876828323001866	1.3955966081088074	0.20406670353251433	1.3573452644754964	1.3387475602868926	0.12750188909742585	0.7022957596183387	0.5988091356996997	0.10733325926888182	0.9215751526570881	0.962848324002198	0.07677021997058103	1.1982537747980626	1.323620296778207	0.1370664487881387	1.003263685509079	1.4095844785872564	0.0603264898007271	1.0830405208893443	1.4068380341184339	0.06933916826242678	1.3056423443207876	1.3520729083752903	0.2169027076351852	0.444740995295392	0.1765310036638614	0.2373651620748412	0.2681578762630566	0.006691715322450743	0.2681030280311022	0.2696950725527658	0.14215188358613642	0.38359663523722975	0.4981145712261168	0.23970311569242783	0.41882119477640617	0.7204147604138841	0.415476308625934	0.42769252755652093	0.84551801320052	0.6431050673623627	0.43195805549760413	0.7904904499700122	0.7713641894705446	0.46346454617544475	0.810756615937781	0.7684676841450682	0.44052910821820623	0.9015745052187586	0.7522317991165011	0.084434502606685	0.45424462896512174	0.2681786862992715	-0.0013930020333868202	0.6443602786163195	0.46602883005338536	-0.029904595330236268	0.7775336186105585	0.6474544803788068	-0.013829032955947266	0.8930152926176536	0.7289810696302863	-0.04670207707930999	0.858179844958496	0.7488522808855419	-0.07919378259596287	0.8747587824811952	0.7341450016473687
2	0.0392156862745098	0.31989725522272844	0.7490987506295486	0.5752603680332645	0.2980023794014262	0.9710216021413545	0.946018811334994	0.25847295766249173	1.2363113469215903	1.311650425727844	0.27349285382316196	1.0897826210506227	1.4120236203854541	0.3409054284408701	1.08686945059343	1.3959206263802375	0.20412720222799166	1.3577795023186834	1.3388376611955803	0.12762049751444146	0.7025494843512128	0.5987602049195127	0.10721451525345593	0.9219039088627206	0.9627170819577798	0.07861416285150076	1.2228816627554748	1.3216043851796857	0.1279230134313004	1.0178276909666768	1.4106740022438002	0.055895819359010675	1.078028879793869	1.4026161834661535	0.07751832323982669	1.3009866043355183	1.3457288306913446	0.21330591403389065	0.4415327916731199	0.17804237254274635	0.2255421410259633	0.27984377854117914	0.008806573686003879	0.2649907144199258	0.2588243098381567	0.15101880576659324	0.3834148673147835	0.4980261325992675	0.23959512945265604	0.4187163893963728	0.720555909182812	0.41508738958434277	0.42864363258178106	0.8471959988173456	0.6428519864207425	0.42777767834602276	0.8471801768034185	0.760536063570664	0.45571237836949924	0.8382654845229043	0.7635115521832386	0.44462149641146	0.913070067080414	0.7452253531713151	0.08472082032826653	0.45138032928303834	0.2657526705611017	0.0017721767822822937	0.64842527606573	0.4644389052237885	-0.020109976694220454	0.7646027493000898	0.6497432684533169	-0.015277583876928152	0.9067364773425286	0.7261330591025401	-0.03886169927436272	0.860028750381439	0.7478929306821853	-0.06750890293449266	0.876356404831366	0.728951872873122
3	0.058823529411764705	0.31970953032917887	0.7452548561203743	0.5718682883390892	0.2938655512441386	0.921096232121858	0.9493950317389683	0.25797416789584954	1.220464261576885	1.3165799044592343	0.28256559367208534	1.0604616300611172	1.4087573390935446	0.3411096193024203	1.0720066488540614	1.3925894243961445	0.2042210688218666	1.3562378706702451	1.3400442400299524	0.11858999596026923	0.7155070807910373	0.5998939319110786	0.1061721717165915	0.9233026007879809	0.966646052975008	0.07827607106915759	1.2096829998418879	1.3270442677178393	0.13734709009646523	1.0026299996793073	1.4095273586008168	0.05977547320768899	1.0828932071529496	1.4022475564523316	0.06612064465768103	1.3109351303371841	1.3528806800701478	0.21375516844298656	0.4301488922187562	0.18299430048540766	0.22229585193143825	0.268237334566529	0.01515492551863425	0.2575977007674377	0.2650777526610846	0.14462368755683594	0.38016049200823554	0.49143916373905433	0.23473487954119931	0.41903943204920774	0.7185106514433871	0.41181802767729236	0.4321686869716785	0.8438806925733529	0.6345811305303617	0.43984262749528946	0.8473610671803511	0.742273902664696	0.467146433711705	0.8325237559287155	0.7561166236983987	0.4492407385630622	0.9126732004631741	0.7410123563012565	0.08255540730446215	0.4404860168962081	0.27817451081945693	0.002446023958333136	0.6493443648440426	0.4685186386417153	-0.018711111799133328	0.7866383626285544	0.6483039795090978	-0.014870961525834676	0.9067908388633117	0.7262666223644814	-0.03473915257972763	0.8640759529737462	0.7471913076915032	-0.07782062659682436	0.8963252434833848	0.7341708151816888
